<?xml version="1.0" encoding="UTF-8" standalone="no"?>
<svg
   class="ionicon"
   viewBox="0 0 512 512"
   version="1.1"
   id="svg2"
   sodipodi:docname="logo-ionic-mcp.svg"
   xml:space="preserve"
   inkscape:version="1.4.4 (dcaf3e7, 2026-05-05)"
   width="512"
   height="512"
   xmlns:inkscape="http://www.inkscape.org/namespaces/inkscape"
   xmlns:sodipodi="http://sodipodi.sourceforge.net/DTD/sodipodi-0.dtd"
   xmlns="http://www.w3.org/2000/svg"
   xmlns:svg="http://www.w3.org/2000/svg"><defs
     id="defs2"><clipPath
       id="clip0_19_13"><rect
         width="180"
         height="180"
         fill="#ffffff"
         id="rect3"
         x="0"
         y="0" /></clipPath></defs><sodipodi:namedview
     id="namedview2"
     pagecolor="#ffffff"
     bordercolor="#000000"
     borderopacity="0.25"
     inkscape:showpageshadow="2"
     inkscape:pageopacity="0.0"
     inkscape:pagecheckerboard="true"
     inkscape:deskcolor="#d1d1d1"
     showgrid="true"
     inkscape:zoom="0.90478516"
     inkscape:cx="-8.841878"
     inkscape:cy="338.20183"
     inkscape:window-width="2603"
     inkscape:window-height="1574"
     inkscape:window-x="269"
     inkscape:window-y="418"
     inkscape:window-maximized="0"
     inkscape:current-layer="svg2"><inkscape:page
       x="0"
       y="0"
       width="512"
       height="512"
       id="page3"
       margin="0"
       bleed="0"
       inkscape:export-filename="logo-ionic-mcp.png"
       inkscape:export-xdpi="24"
       inkscape:export-ydpi="24" /><inkscape:grid
       id="grid4"
       units="px"
       originx="0"
       originy="0"
       spacingx="1"
       spacingy="1"
       empcolor="#0099e5"
       empopacity="0.30196078"
       color="#0099e5"
       opacity="0.14901961"
       empspacing="5"
       enabled="true"
       visible="true" /></sodipodi:namedview><path
     d="M 256,153.9 A 102.1,102.1 0 1 0 358.1,256 102.23,102.23 0 0 0 256,153.9 Z"
     fill="#0cadff"
     id="path1" /><circle
     cx="402.59"
     cy="116.45"
     r="46.52"
     fill="#194bfd"
     id="circle1" /><path
     d="m 459.86,163.2 -1.95,-4.28 -3.11,3.52 a 70,70 0 0 1 -28.06,19.32 l -3,1.1 1.22,2.93 A 181.43,181.43 0 0 1 439,256 C 439,356.92 356.9,439 256,439 155.1,439 73,356.92 73,256 73,155.08 155.08,73 256,73 a 180.94,180.94 0 0 1 78.43,17.7 l 2.87,1.3 1.25,-2.92 A 70.19,70.19 0 0 1 359.21,62 L 362.88,59.07 358.71,57 A 221.61,221.61 0 0 0 256,32 C 132.49,32 32,132.49 32,256 32,379.51 132.49,480 256,480 379.51,480 480,379.51 480,256 a 222.19,222.19 0 0 0 -20.14,-92.8 z"
     fill="#3880ff"
     id="path2" /><path
     id="path6"
     style="baseline-shift:baseline;display:inline;overflow:visible;opacity:1;vector-effect:none;fill:#ffffff;fill-opacity:1;stroke-width:1.05445;stroke-linecap:round;enable-background:accumulate;stop-color:#000000;stop-opacity:1"
     d="m 270.02225,165.03223 c -8.10897,-2e-5 -16.21961,3.07605 -22.36995,9.22641 l -71.57678,71.57678 a 6.3266838,6.3266838 0 0 0 0,8.94838 6.3266838,6.3266838 0 0 0 8.94632,0 l 71.57885,-71.57884 c 7.46514,-7.46516 19.37659,-7.46493 26.84104,0 7.4655,7.46511 7.46554,19.37787 0,26.84309 0.70827,-0.70823 1.4484,-1.36477 2.20569,-1.9915 -0.75697,0.62651 -1.49769,1.28351 -2.20569,1.9915 l -53.30931,53.30931 a 6.3266838,6.3266838 0 0 0 -0.002,0.002 6.3266838,6.3266838 0 0 0 -0.0145,0.0145 l -0.72904,0.72905 a 6.3266838,6.3266838 0 0 0 0,8.94839 6.3266838,6.3266838 0 0 0 8.94631,0 l 0.74554,-0.74553 53.31137,-53.31138 c 7.46565,-7.46533 19.37539,-7.46533 26.84103,0 l 0.37072,0.3707 0.002,0.002 c 7.46555,7.46522 7.4655,19.37593 0,26.84104 l -64.73522,64.73696 c -5.71211,5.71175 -5.71211,15.16508 0,20.87682 l 13.2918,13.29181 a 6.3266838,6.3266838 0 0 0 8.94839,0.002 6.3266838,6.3266838 0 0 0 0,-8.94839 l -13.29384,-13.294 c -0.8765,-0.87645 -0.8765,-2.10362 0,-2.98006 v -0.002 l 64.7373,-64.73524 c 12.30046,-12.29982 12.30098,-32.43291 0.002,-44.7337 l -0.002,-0.002 -0.37071,-0.37276 h -0.002 c -6.1505,-6.15026 -14.25884,-9.22642 -22.36787,-9.22642 -1.66626,0 -3.32836,0.16244 -4.97773,0.42219 0.15608,-0.0246 0.30701,-0.0806 0.46337,-0.10302 1.35776,-9.5375 -1.61191,-19.58733 -8.90719,-26.88223 -6.15006,-6.15047 -14.25892,-9.22641 -22.36787,-9.22641 z m 0,25.26759 a 6.3266838,6.3266838 0 0 0 -4.47317,1.85353 l -52.93861,52.93655 c -12.3006,12.3006 -12.30045,32.43684 0,44.73781 12.3007,12.29991 32.43504,12.29991 44.73574,0 l 52.93861,-52.93861 a 6.3266838,6.3266838 0 0 0 0,-8.94839 6.3266838,6.3266838 0 0 0 -8.94838,0 l -52.93862,52.93861 c -7.46517,7.46349 -19.37629,7.46425 -26.84103,0 -7.46537,-7.4657 -7.46522,-19.37582 0,-26.84104 l 52.9386,-52.9386 a 6.3266838,6.3266838 0 0 0 0,-8.94633 6.3266838,6.3266838 0 0 0 -4.47314,-1.85353 z m 26.55476,11.89342 c -0.87616,0.2648 -1.74453,0.56212 -2.59905,0.90412 0.85505,-0.34228 1.72234,-0.63913 2.59905,-0.90412 z m -3.13039,1.14096 c -0.6881,0.29024 -1.36902,0.60025 -2.03886,0.94117 0.6698,-0.34092 1.3508,-0.65092 2.03886,-0.94117 z m -2.92445,1.42309 c -0.55571,0.30574 -1.10553,0.62637 -1.6455,0.96794 0.54028,-0.34178 1.08946,-0.66203 1.6455,-0.96794 z m -2.51667,1.53636 c -0.55856,0.37996 -1.1033,0.78513 -1.64139,1.20478 0.53813,-0.41967 1.08279,-0.82481 1.64139,-1.20478 z m -58.42297,57.69186 a 6.3266838,6.3266838 0 0 0 -0.45719,0.6858 6.3266838,6.3266838 0 0 0 -0.19565,0.39542 6.3266838,6.3266838 0 0 1 0.19565,-0.39542 6.3266838,6.3266838 0 0 1 0.45719,-0.6858 z m -1.25009,3.0233 a 6.3266838,6.3266838 0 0 0 -0.0371,0.56635 6.3266838,6.3266838 0 0 1 0.0371,-0.56635 z" /></svg>
